<?xml version="1.0" encoding="UTF-8"?> <!-- Generator: Adobe Illustrator 21.1.0, SVG Export Plug-In . SVG Version: 6.00 Build 0) --> <svg xmlns="http://www.w3.org/2000/svg" xmlns:xlink="http://www.w3.org/1999/xlink" id="Capa_1" x="0px" y="0px" viewBox="0 0 164.2 164.2" style="enable-background:new 0 0 164.2 164.2;" xml:space="preserve"> <style type="text/css"> .st0{fill:#525849;} .st1{fill:#FFFFFF;} .st2{fill:#A6A385;} .st3{fill:#499D4A;} .st4{fill:#58AA50;} .st5{fill:#CC7C70;} .st6{fill:#275F8F;} .st7{fill:#53C1DE;} .st8{fill:#9AC04C;} </style> <g> <g> <circle class="st0" cx="82.1" cy="82.1" r="82.1"></circle> <g> <path class="st1" d="M85.3,153.2l-3.8-1.3c0,0,0.5-19.3-6.5-20.7c-4.6-5.4,0.7-227.3,17.4-0.7c0,0-5.7,2.9-6.7,7.8 C84.6,143.1,85.3,153.2,85.3,153.2L85.3,153.2z"></path> <path class="st2" d="M85.3,153.2l-3.8-1.3c0,0,0.5-19.3-6.5-20.7c-4.6-5.4,0.7-227.3,17.4-0.7c0,0-5.7,2.9-6.7,7.8 C84.6,143.1,85.3,153.2,85.3,153.2L85.3,153.2z"></path> <path class="st1" d="M87.4,134.6c0,0,33.2-21.8,25.4-67.2c-7.5-33-25.1-43.8-27.1-48c-2.1-3-4.2-8.1-4.2-8.1l1.4,91.7 C82.9,103.2,80.1,131.2,87.4,134.6"></path> <path class="st3" d="M87.4,134.6c0,0,33.2-21.8,25.4-67.2c-7.5-33-25.1-43.8-27.1-48c-2.1-3-4.2-8.1-4.2-8.1l1.4,91.7 C82.9,103.2,80.1,131.2,87.4,134.6"></path> <path class="st1" d="M79.6,135.8c0,0-31.1-21.3-29.3-58.7c1.8-37.4,23.7-55.8,28-59.1c2.8-3,2.9-4.1,3-7c1.9,4.2,1.6,62.2,1.8,69 C84,106.3,81.7,130.8,79.6,135.8z"></path> <path class="st4" d="M79.6,135.8c0,0-31.1-21.3-29.3-58.7c1.8-37.4,23.7-55.8,28-59.1c2.8-3,2.9-4.1,3-7c1.9,4.2,1.6,62.2,1.8,69 C84,106.3,81.7,130.8,79.6,135.8z"></path> </g> </g> </g> </svg> 