<?xml version="1.0" encoding="UTF-8"?> <!-- Generator: Adobe Illustrator 21.1.0, SVG Export Plug-In . SVG Version: 6.00 Build 0) --> <svg xmlns="http://www.w3.org/2000/svg" xmlns:xlink="http://www.w3.org/1999/xlink" id="Capa_1" x="0px" y="0px" viewBox="0 0 164.2 164.2" style="enable-background:new 0 0 164.2 164.2;" xml:space="preserve"> <style type="text/css"> .st0{fill:#525849;} .st1{fill:#FFFFFF;} .st2{fill:#A6A385;} .st3{fill:#499D4A;} .st4{fill:#58AA50;} .st5{fill:#CC7C70;} .st6{fill:#275F8F;} .st7{fill:#53C1DE;} .st8{fill:#9AC04C;} </style> <g> <g> <circle class="st6" cx="82.1" cy="82.1" r="82.1"></circle> <g> <path class="st7" d="M127.8,59.9L127.8,59.9c-1.5-0.5-3-1-4.6-1.4c0.3-1,0.5-2.1,0.7-3.1c3.5-16.8,1.2-30.3-6.5-34.7 c-7.4-4.3-19.5,0.2-31.7,10.8c-1.2,1.1-2.4,2.1-3.5,3.2c-0.8-0.7-1.6-1.5-2.3-2.2C67,21.1,54.2,16.4,46.5,20.8 c-7.4,4.3-9.6,17-6.5,32.9c0.3,1.6,0.7,3.1,1,4.7c-1.8,0.5-3.6,1.1-5.2,1.7c-15,5.2-24.6,13.4-24.6,21.9 c0,8.8,10.3,17.6,25.9,22.9c1.3,0.4,2.5,0.8,3.8,1.2c-0.4,1.7-0.8,3.4-1.1,5.1c-3,15.6-0.6,28,6.7,32.3c7.6,4.4,20.4-0.1,32.8-11 c1-0.9,2-1.8,3-2.7c1.2,1.2,2.5,2.4,3.8,3.5c12.1,10.4,24,14.6,31.3,10.3c7.6-4.4,10.1-17.7,6.9-33.9c-0.2-1.2-0.5-2.5-0.9-3.8 c0.9-0.3,1.8-0.5,2.6-0.8c16.3-5.4,26.8-14.1,26.8-23C153,73.4,143.1,65.2,127.8,59.9z M89.7,36c10.5-9.1,20.3-12.7,24.7-10.1h0 c4.7,2.7,6.6,13.8,3.6,28.3c-0.2,0.9-0.4,1.9-0.6,2.8c-5.9-1.4-12.3-2.4-19-3c-3.9-5.5-7.9-10.6-12-15C87.5,38,88.6,37,89.7,36z M53.1,89.2c1.3,2.5,2.6,4.9,4,7.3c1.4,2.5,2.9,4.9,4.5,7.3c-4.6-0.5-9-1.2-13.1-2.1C49.7,97.7,51.3,93.5,53.1,89.2z M53.1,75 c-1.8-4.2-3.3-8.3-4.5-12.3c4-0.9,8.4-1.6,12.9-2.2c-1.5,2.3-3,4.7-4.3,7.1C55.7,70.1,54.3,72.5,53.1,75z M56.3,82.1 c1.9-3.9,3.9-7.7,6-11.4v0c2.2-3.7,4.4-7.4,6.9-10.9c4.2-0.3,8.5-0.5,12.9-0.5c4.4,0,8.7,0.2,12.9,0.5c2.4,3.6,4.7,7.2,6.8,10.9 c2.2,3.7,4.2,7.5,6.1,11.4c-1.9,3.9-3.9,7.7-6.1,11.5l0,0c-2.1,3.7-4.4,7.4-6.8,11c-4.2,0.3-8.6,0.5-13,0.5 c-4.4,0-8.7-0.1-12.8-0.4c-2.4-3.6-4.8-7.2-6.9-11C60.2,89.8,58.2,86,56.3,82.1z M107.1,96.5c1.4-2.5,2.8-5,4.1-7.5 c1.9,4.3,3.5,8.5,4.8,12.5c-4.1,0.9-8.5,1.7-13.2,2.3C104.3,101.4,105.7,99,107.1,96.5z M111.2,75c-1.3-2.5-2.7-4.9-4.1-7.4v0 c-1.4-2.4-2.8-4.8-4.3-7.1c4.5,0.6,8.9,1.3,12.9,2.3C114.5,66.7,113,70.8,111.2,75z M82.2,43.3L82.2,43.3c2.8,3,5.6,6.4,8.3,10.1 c-5.6-0.3-11.2-0.3-16.8,0C76.5,49.8,79.3,46.4,82.2,43.3z M49.5,26.1c4.7-2.7,15.2,1.2,26.3,11c0.7,0.6,1.4,1.3,2.1,2 c-4.1,4.4-8.2,9.5-12.1,14.9c-6.7,0.6-13.1,1.6-18.9,2.9c-0.4-1.4-0.7-2.9-1-4.4v0C43.3,38.9,45.1,28.6,49.5,26.1z M42.6,100.3 c-1.2-0.3-2.3-0.7-3.5-1.1c-6.9-2.4-12.6-5.4-16.5-8.8c-3.5-3-5.3-6-5.3-8.4c0-5.2,7.7-11.7,20.5-16.2c1.6-0.6,3.2-1.1,4.9-1.5 c1.8,5.8,4.1,11.8,6.9,17.9C46.7,88.3,44.4,94.4,42.6,100.3z M75.4,127.9c-5.5,4.8-11,8.2-15.9,9.9h0c-4.4,1.5-7.8,1.6-9.9,0.4 c-4.5-2.6-6.3-12.5-3.8-25.9c0.3-1.6,0.6-3.1,1-4.7c5.8,1.3,12.2,2.2,19.1,2.8c3.9,5.5,8,10.6,12.2,15 C77.2,126.3,76.3,127.1,75.4,127.9z M82.3,121.1c-2.9-3.1-5.7-6.5-8.5-10.2c2.7,0.1,5.5,0.2,8.3,0.2c2.9,0,5.7-0.1,8.6-0.2 C87.9,114.6,85.1,118,82.3,121.1z M119.1,129.5c-0.8,4.6-2.5,7.6-4.6,8.8c-4.5,2.6-14-0.8-24.3-9.6c-1.2-1-2.4-2.1-3.6-3.3 c4-4.4,8-9.5,11.9-15.1c6.9-0.6,13.3-1.6,19.2-3c0.3,1.2,0.5,2.3,0.8,3.4v0C119.9,117.9,120.1,124.4,119.1,129.5z M124.3,99.2 L124.3,99.2c-0.8,0.3-1.6,0.5-2.4,0.7c-1.8-5.7-4.2-11.7-7.2-18c2.8-6.1,5.2-12.1,6.9-17.7c1.5,0.4,2.9,0.9,4.2,1.3 c13.1,4.5,21.1,11.2,21.1,16.3C146.9,87.5,138.3,94.6,124.3,99.2z"></path> <circle class="st7" cx="82.1" cy="82" r="12.7"></circle> </g> </g> </g> </svg> 