<?xml version="1.0" encoding="UTF-8"?> <!-- Generator: Adobe Illustrator 21.1.0, SVG Export Plug-In . SVG Version: 6.00 Build 0) --> <svg xmlns="http://www.w3.org/2000/svg" xmlns:xlink="http://www.w3.org/1999/xlink" id="Capa_1" x="0px" y="0px" viewBox="0 0 164.2 164.2" style="enable-background:new 0 0 164.2 164.2;" xml:space="preserve"> <style type="text/css"> .st0{fill:#525849;} .st1{fill:#FFFFFF;} .st2{fill:#A6A385;} .st3{fill:#499D4A;} .st4{fill:#58AA50;} .st5{fill:#CC7C70;} .st6{fill:#275F8F;} .st7{fill:#53C1DE;} .st8{fill:#9AC04C;} </style> <g> <g> <circle class="st8" cx="82.1" cy="82.1" r="82.1"></circle> <g> <path class="st1" d="M77.1,22.8c3-1.7,6.9-1.7,9.9,0c15.1,8.5,30.2,17.1,45.3,25.6c2.8,1.6,4.7,4.8,4.7,8v51.4 c0,3.4-2.1,6.6-5.1,8.2c-15.1,8.5-30.1,17-45.2,25.5c-3.1,1.8-7.1,1.6-10-0.3c-4.5-2.6-9-5.2-13.6-7.8c-0.9-0.6-2-1-2.6-1.9 c0.6-0.8,1.6-0.9,2.4-1.2c1.9-0.6,3.6-1.6,5.3-2.5c0.4-0.3,1-0.2,1.4,0.1c3.9,2.2,7.7,4.5,11.6,6.7c0.8,0.5,1.7-0.2,2.4-0.6 c14.8-8.4,29.6-16.7,44.4-25c0.5-0.3,0.9-0.8,0.8-1.4c0-16.9,0-33.9,0-50.8c0.1-0.7-0.3-1.3-0.9-1.6c-15-8.5-30-16.9-45-25.4 c-0.5-0.4-1.2-0.4-1.8,0c-15,8.5-30,16.9-45,25.4c-0.6,0.3-1,0.9-1,1.6c0,16.9,0,33.9,0,50.8c-0.1,0.6,0.3,1.2,0.8,1.4 c4,2.3,8,4.5,12,6.8c2.3,1.2,5,1.9,7.5,1c2.2-0.8,3.7-3,3.7-5.4c0-16.8,0-33.7,0-50.5c-0.1-0.7,0.7-1.4,1.4-1.3 c1.9,0,3.9,0,5.8,0c0.8,0,1.4,0.8,1.3,1.5c0,17,0,33.9,0,50.9c0,4.5-1.9,9.4-6,11.6c-5.1,2.7-11.5,2.1-16.6-0.5 c-4.4-2.2-8.6-4.8-12.9-7.1c-3-1.6-5.1-4.8-5.1-8.2V56.4c0-3.3,1.9-6.6,4.9-8.1C47,39.8,62.1,31.3,77.1,22.8z"></path> <path class="st1" d="M90.3,58.4c6.6-0.4,13.6-0.3,19.5,3c4.6,2.5,7.1,7.7,7.2,12.8c-0.1,0.7-0.8,1.1-1.5,1c-1.9,0-3.8,0-5.7,0 c-0.8,0-1.3-0.7-1.4-1.4c-0.5-2.4-1.9-4.8-4.2-6c-3.5-1.8-7.6-1.7-11.4-1.6c-2.8,0.1-5.8,0.4-8.2,2c-1.8,1.2-2.4,3.8-1.7,5.8 c0.6,1.5,2.3,1.9,3.7,2.4c7.9,2.1,16.3,1.9,24.1,4.6c3.2,1.1,6.4,3.3,7.5,6.6c1.4,4.5,0.8,9.9-2.4,13.5c-2.6,3-6.4,4.6-10.2,5.5 c-5,1.1-10.2,1.1-15.4,0.7c-4.8-0.5-9.8-1.8-13.5-5.1c-3.2-2.8-4.7-7-4.6-11.2c0-0.7,0.7-1.2,1.4-1.1c1.9,0,3.8,0,5.8,0 c0.8-0.1,1.3,0.6,1.4,1.3c0.4,2.3,1.2,4.7,3.2,6.1c3.9,2.5,8.8,2.3,13.3,2.4c3.7-0.2,7.9-0.2,10.9-2.7c1.6-1.4,2.1-3.7,1.6-5.7 c-0.5-1.7-2.2-2.5-3.8-3c-7.8-2.5-16.3-1.6-24-4.4c-3.1-1.1-6.2-3.2-7.4-6.4c-1.7-4.6-0.9-10.2,2.6-13.7 C80.5,60.2,85.5,58.8,90.3,58.4L90.3,58.4z"></path> </g> </g> </g> </svg> 