<?xml version="1.0" encoding="UTF-8"?> <!-- Generator: Adobe Illustrator 21.1.0, SVG Export Plug-In . SVG Version: 6.00 Build 0) --> <svg xmlns="http://www.w3.org/2000/svg" xmlns:xlink="http://www.w3.org/1999/xlink" id="Capa_1" x="0px" y="0px" viewBox="0 0 164.2 164.2" style="enable-background:new 0 0 164.2 164.2;" xml:space="preserve"> <style type="text/css"> .st0{fill:#525849;} .st1{fill:#FFFFFF;} .st2{fill:#A6A385;} .st3{fill:#499D4A;} .st4{fill:#58AA50;} .st5{fill:#CC7C70;} .st6{fill:#275F8F;} .st7{fill:#53C1DE;} .st8{fill:#9AC04C;} </style> <g> <g> <circle class="st5" cx="82.1" cy="82.1" r="82.1"></circle> <g> <path class="st1" d="M48.5,120.1c-18.7,0.1-32.4-14-32.4-37.9s13.7-38.1,32.4-38.2C69,43.9,79.4,60.2,79.4,75.7 c0,3.6,0,4.9-0.1,7.4l-60.7,0.4c0.4,23.8,14.8,34.2,29.9,34.2c15-0.1,26.3-9.1,28.4-23.8l2.5,0C77.1,109.1,65.9,120,48.5,120.1z M18.6,81l58.6-0.3c1.2-23.9-13.7-34.3-28.7-34.2C33.1,46.6,18.6,57.4,18.6,81z"></path> <polygon class="st1" points="145.5,118.9 117.6,83.3 89.8,118.9 87.3,118.9 116.1,81.6 87.8,45.7 90.5,45.7 117.9,80.4 145.1,45.7 147.5,45.7 119.2,82.2 148.1,118.9 "></polygon> </g> </g> </g> </svg> 