<?xml version="1.0" encoding="UTF-8"?> <!-- Generator: Adobe Illustrator 21.1.0, SVG Export Plug-In . SVG Version: 6.00 Build 0) --> <svg xmlns="http://www.w3.org/2000/svg" xmlns:xlink="http://www.w3.org/1999/xlink" id="Capa_1" x="0px" y="0px" viewBox="0 0 807.6 509.8" style="enable-background:new 0 0 807.6 509.8;" xml:space="preserve"> <style type="text/css"> .st0{fill:#262D3A;} .st1{fill:#FF4F0F;} .st2{fill:#FF3C2B;} .st3{fill:#FF2A46;} .st4{fill:#FF1762;} .st5{fill:#FEFEFE;} .st6{enable-background:new ;} .st7{fill:#FAFCFC;} .st8{fill:#525849;} .st9{fill:#FFFFFF;} .st10{fill:#A6A385;} .st11{fill:#499D4A;} .st12{fill:#58AA50;} .st13{fill:#CC7C70;} .st14{fill:#275F8F;} .st15{fill:#53C1DE;} .st16{fill:#9AC04C;} </style> <rect class="st0" width="807.6" height="510.5"></rect> <g> <g> <g> <circle class="st8" cx="131.5" cy="206.1" r="82.1"></circle> <g> <path class="st9" d="M134.7,277.3l-3.8-1.3c0,0,0.5-19.3-6.5-20.7c-4.6-5.4,0.7-227.3,17.4-0.7c0,0-5.7,2.9-6.7,7.8 C134,267.1,134.7,277.3,134.7,277.3L134.7,277.3z"></path> <path class="st10" d="M134.7,277.3l-3.8-1.3c0,0,0.5-19.3-6.5-20.7c-4.6-5.4,0.7-227.3,17.4-0.7c0,0-5.7,2.9-6.7,7.8 C134,267.1,134.7,277.3,134.7,277.3L134.7,277.3z"></path> <path class="st9" d="M136.8,258.6c0,0,33.2-21.8,25.4-67.2c-7.5-33-25.1-43.8-27.1-48c-2.1-3-4.2-8.1-4.2-8.1l1.4,91.7 C132.3,227.2,129.5,255.2,136.8,258.6"></path> <path class="st11" d="M136.8,258.6c0,0,33.2-21.8,25.4-67.2c-7.5-33-25.1-43.8-27.1-48c-2.1-3-4.2-8.1-4.2-8.1l1.4,91.7 C132.3,227.2,129.5,255.2,136.8,258.6"></path> <path class="st9" d="M129,259.8c0,0-31.1-21.3-29.3-58.7c1.8-37.4,23.7-55.8,28-59.1c2.8-3,2.9-4.1,3-7c1.9,4.2,1.6,62.2,1.8,69 C133.4,230.3,131.1,254.8,129,259.8z"></path> <path class="st12" d="M129,259.8c0,0-31.1-21.3-29.3-58.7c1.8-37.4,23.7-55.8,28-59.1c2.8-3,2.9-4.1,3-7 c1.9,4.2,1.6,62.2,1.8,69C133.4,230.3,131.1,254.8,129,259.8z"></path> </g> </g> <path class="st11" d="M89.7,383.5c4.1-0.4,6.7-1.3,7.8-2.8c1.2-1.4,1.7-4.7,1.7-9.9V331c0-3.5-0.6-5.8-1.7-6.9 c-1.1-1.1-3.7-1.7-7.6-1.9v-1.8h19.3l22.5,48.9l22-48.9h19.5v1.8c-3.6,0.3-6,0.9-7,2s-1.6,3.3-1.6,6.8v43.6c0,3.6,0.5,5.9,1.6,6.9 c1.1,1,3.4,1.7,7,2v1.8h-27.5v-1.8c4-0.3,6.4-1,7.4-2.1c1-1.1,1.5-3.7,1.5-7.9v-44l-25.1,55.9h-1.3l-24.7-53.6v39.1 c0,5.4,0.8,8.9,2.3,10.5c1,1.1,3.3,1.8,6.9,2.2v1.8h-23V383.5z"></path> </g> <g> <g> <circle class="st13" cx="313" cy="206.1" r="82.1"></circle> <g> <path class="st9" d="M279.4,244.2c-18.7,0.1-32.4-14-32.4-37.9s13.7-38.1,32.4-38.2c20.6-0.1,30.9,16.2,30.9,31.7 c0,3.6,0,4.9-0.1,7.4l-60.7,0.4c0.4,23.8,14.8,34.2,29.9,34.2c15-0.1,26.3-9.1,28.4-23.8l2.5,0 C308,233.2,296.8,244.1,279.4,244.2z M249.5,205.1l58.6-0.3c1.2-23.9-13.7-34.3-28.7-34.2C264.1,170.7,249.5,181.5,249.5,205.1z "></path> <polygon class="st9" points="376.4,243 348.5,207.4 320.8,243 318.2,243 347.1,205.6 318.8,169.7 321.4,169.7 348.8,204.5 376.1,169.7 378.4,169.7 350.1,206.2 379.1,243 "></polygon> </g> </g> <path class="st13" d="M284.3,383.5c3.6-0.4,5.9-1,7-1.9c1.1-0.9,1.6-3.2,1.6-6.9V331c0-3.5-0.5-5.8-1.6-6.8c-1.1-1.1-3.4-1.7-7-2 v-1.8h52.1l0.3,14h-2.5c-0.8-4.3-2.1-7.1-3.7-8.4c-1.7-1.3-5.4-1.9-11.1-1.9H306c-1.4,0-2.3,0.2-2.7,0.7c-0.3,0.5-0.5,1.3-0.5,2.6 v21.9H318c4.2,0,6.9-0.6,8-1.9c1.2-1.2,2.1-3.8,2.8-7.5h2.3v22.7h-2.3c-0.7-3.8-1.7-6.3-2.8-7.5c-1.1-1.2-3.8-1.8-8-1.8h-15.1 v24.3c0,1.9,0.6,3.1,1.8,3.4c1.2,0.4,4.9,0.5,11.1,0.5c6.7,0,11.6-0.7,14.7-2.2c3.2-1.5,6-5,8.5-10.6h2.7l-4.5,16.6h-53V383.5z"></path> </g> <g> <g> <circle class="st14" cx="494.6" cy="206.1" r="82.1"></circle> <g> <path class="st15" d="M540.3,184L540.3,184c-1.5-0.5-3-1-4.6-1.4c0.3-1,0.5-2.1,0.7-3.1c3.5-16.8,1.2-30.3-6.5-34.7 c-7.4-4.3-19.5,0.2-31.7,10.8c-1.2,1.1-2.4,2.1-3.5,3.2c-0.8-0.7-1.6-1.5-2.3-2.2c-12.8-11.4-25.6-16.2-33.3-11.7 c-7.4,4.3-9.6,17-6.5,32.9c0.3,1.6,0.7,3.1,1,4.7c-1.8,0.5-3.6,1.1-5.2,1.7c-15,5.2-24.6,13.4-24.6,21.9 c0,8.8,10.3,17.6,25.9,22.9c1.3,0.4,2.5,0.8,3.8,1.2c-0.4,1.7-0.8,3.4-1.1,5.1c-3,15.6-0.6,28,6.7,32.3 c7.6,4.4,20.4-0.1,32.8-11c1-0.9,2-1.8,3-2.7c1.2,1.2,2.5,2.4,3.8,3.5c12.1,10.4,24,14.6,31.3,10.3c7.6-4.4,10.1-17.7,6.9-33.9 c-0.2-1.2-0.5-2.5-0.9-3.8c0.9-0.3,1.8-0.5,2.6-0.8c16.3-5.4,26.8-14.1,26.8-23C565.5,197.5,555.6,189.2,540.3,184z M502.1,160.1c10.5-9.1,20.3-12.7,24.7-10.1l0,0c4.7,2.7,6.6,13.8,3.6,28.3c-0.2,0.9-0.4,1.9-0.6,2.8c-5.9-1.4-12.3-2.4-19-3 c-3.9-5.5-7.9-10.6-12-15C499.9,162,501,161,502.1,160.1z M465.5,213.3c1.3,2.5,2.6,4.9,4,7.3c1.4,2.5,2.9,4.9,4.5,7.3 c-4.6-0.5-9-1.2-13.1-2.1C462.2,221.8,463.7,217.6,465.5,213.3z M465.5,199c-1.8-4.2-3.3-8.3-4.5-12.3c4-0.9,8.4-1.6,12.9-2.2 c-1.5,2.3-3,4.7-4.3,7.1C468.1,194.1,466.8,196.6,465.5,199z M468.8,206.2c1.9-3.9,3.9-7.7,6-11.4v0c2.2-3.7,4.4-7.4,6.9-10.9 c4.2-0.3,8.5-0.5,12.9-0.5c4.4,0,8.7,0.2,12.9,0.5c2.4,3.6,4.7,7.2,6.8,10.9c2.2,3.7,4.2,7.5,6.1,11.4 c-1.9,3.9-3.9,7.7-6.1,11.5h0c-2.1,3.7-4.4,7.4-6.8,11c-4.2,0.3-8.6,0.5-13,0.5c-4.4,0-8.7-0.1-12.8-0.4 c-2.4-3.6-4.8-7.2-6.9-11C472.6,213.9,470.6,210,468.8,206.2z M519.6,220.6c1.4-2.5,2.8-5,4.1-7.5c1.9,4.3,3.5,8.5,4.8,12.5 c-4.1,0.9-8.5,1.7-13.2,2.3C516.7,225.4,518.2,223,519.6,220.6z M523.7,199c-1.3-2.5-2.7-4.9-4.1-7.4l0,0 c-1.4-2.4-2.8-4.8-4.3-7.1c4.5,0.6,8.9,1.3,12.9,2.3C527,190.8,525.4,194.8,523.7,199z M494.6,167.4L494.6,167.4 c2.8,3,5.6,6.4,8.3,10.1c-5.6-0.3-11.2-0.3-16.8,0C489,173.8,491.8,170.4,494.6,167.4z M462,150.1c4.7-2.7,15.2,1.2,26.3,11 c0.7,0.6,1.4,1.3,2.1,2c-4.1,4.4-8.2,9.5-12.1,14.9c-6.7,0.6-13.1,1.6-18.9,2.9c-0.4-1.4-0.7-2.9-1-4.4v0 C455.7,162.9,457.5,152.7,462,150.1z M455.1,224.3c-1.2-0.3-2.3-0.7-3.5-1.1c-6.9-2.4-12.6-5.4-16.5-8.8c-3.5-3-5.3-6-5.3-8.4 c0-5.2,7.7-11.7,20.5-16.2c1.6-0.6,3.2-1.1,4.9-1.5c1.8,5.8,4.1,11.8,6.9,17.9C459.2,212.4,456.8,218.5,455.1,224.3z M487.9,251.9c-5.5,4.8-11,8.2-15.9,9.9h0c-4.4,1.5-7.8,1.6-9.9,0.4c-4.5-2.6-6.3-12.5-3.8-25.9c0.3-1.6,0.6-3.1,1-4.7 c5.8,1.3,12.2,2.2,19.1,2.8c3.9,5.5,8,10.6,12.2,15C489.7,250.3,488.8,251.1,487.9,251.9z M494.8,245.1 c-2.9-3.1-5.7-6.5-8.5-10.2c2.7,0.1,5.5,0.2,8.3,0.2c2.9,0,5.7-0.1,8.6-0.2C500.4,238.6,497.6,242,494.8,245.1z M531.6,253.5 c-0.8,4.6-2.5,7.6-4.6,8.8c-4.5,2.6-14-0.8-24.3-9.6c-1.2-1-2.4-2.1-3.6-3.3c4-4.4,8-9.5,11.9-15.1c6.9-0.6,13.3-1.6,19.2-3 c0.3,1.2,0.5,2.3,0.8,3.4l0,0C532.3,242,532.5,248.5,531.6,253.5z M536.7,223.3L536.7,223.3c-0.8,0.3-1.6,0.5-2.4,0.7 c-1.8-5.7-4.2-11.7-7.2-18c2.8-6.1,5.2-12.1,6.9-17.7c1.5,0.4,2.9,0.9,4.2,1.3c13.1,4.5,21.1,11.2,21.1,16.3 C559.4,211.5,550.8,218.6,536.7,223.3z"></path> <circle class="st15" cx="494.6" cy="206" r="12.7"></circle> </g> </g> <path class="st15" d="M463,383.5c3.8-0.3,6.1-1.1,7-2.2c0.9-1.1,1.4-3.7,1.4-7.8V331c0-3.4-0.5-5.7-1.6-6.8c-1-1.1-3.3-1.7-6.9-2 v-1.8h27.2c5.7,0,10.4,0.7,14.1,2.2c7.2,2.7,10.7,7.7,10.7,15c0,4.9-1.6,8.6-4.8,11.2c-3.2,2.6-7.5,4.3-13,5.2l20.2,24.9 c1.2,1.5,2.5,2.6,3.7,3.3c1.2,0.7,2.8,1.1,4.8,1.3v1.8h-15.8l-24.5-30.2l-4.3,0.2v19.3c0,3.6,0.6,5.9,1.7,6.9 c1.1,1,3.5,1.6,7.2,1.9v1.8H463V383.5z M496.6,349.5c5.2-2.1,7.8-6.2,7.8-12.1c0-5.7-2.3-9.5-7-11.6c-2.5-1.1-5.8-1.7-9.9-1.7 c-2.8,0-4.5,0.2-5.1,0.6s-0.9,1.3-0.9,2.8v24.2C488.5,351.4,493.5,350.7,496.6,349.5z"></path> </g> <g> <g> <circle class="st16" cx="676.1" cy="206.1" r="82.1"></circle> <g> <path class="st9" d="M671.1,146.8c3-1.7,6.9-1.7,9.9,0c15.1,8.5,30.2,17.1,45.3,25.6c2.8,1.6,4.7,4.8,4.7,8v51.4 c0,3.4-2.1,6.6-5.1,8.2c-15.1,8.5-30.1,17-45.2,25.5c-3.1,1.8-7.1,1.6-10-0.3c-4.5-2.6-9-5.2-13.6-7.8c-0.9-0.6-2-1-2.6-1.9 c0.6-0.8,1.6-0.9,2.4-1.2c1.9-0.6,3.6-1.6,5.3-2.5c0.4-0.3,1-0.2,1.4,0.1c3.9,2.2,7.7,4.5,11.6,6.7c0.8,0.5,1.7-0.2,2.4-0.6 c14.8-8.4,29.6-16.7,44.4-25c0.5-0.3,0.9-0.8,0.8-1.4c0-16.9,0-33.9,0-50.8c0.1-0.7-0.3-1.3-0.9-1.6c-15-8.5-30-16.9-45-25.4 c-0.5-0.4-1.2-0.4-1.8,0c-15,8.5-30,16.9-45,25.4c-0.6,0.3-1,0.9-1,1.6c0,16.9,0,33.9,0,50.8c-0.1,0.6,0.3,1.2,0.8,1.4 c4,2.3,8,4.5,12,6.8c2.3,1.2,5,1.9,7.5,1c2.2-0.8,3.7-3,3.7-5.4c0-16.8,0-33.7,0-50.5c-0.1-0.7,0.7-1.4,1.4-1.3 c1.9,0,3.9,0,5.8,0c0.8,0,1.4,0.8,1.3,1.5c0,17,0,33.9,0,50.9c0,4.5-1.9,9.4-6,11.6c-5.1,2.7-11.5,2.1-16.6-0.5 c-4.4-2.2-8.6-4.8-12.9-7.1c-3-1.6-5.1-4.8-5.1-8.2v-51.4c0-3.3,1.9-6.6,4.9-8.1C641,163.8,656.1,155.3,671.1,146.8z"></path> <path class="st9" d="M684.3,182.4c6.6-0.4,13.6-0.3,19.5,3c4.6,2.5,7.1,7.7,7.2,12.8c-0.1,0.7-0.8,1.1-1.5,1c-1.9,0-3.8,0-5.7,0 c-0.8,0-1.3-0.7-1.4-1.4c-0.5-2.4-1.9-4.8-4.2-6c-3.5-1.8-7.6-1.7-11.4-1.6c-2.8,0.1-5.8,0.4-8.2,2c-1.8,1.2-2.4,3.8-1.7,5.8 c0.6,1.5,2.3,1.9,3.7,2.4c7.9,2.1,16.3,1.9,24.1,4.6c3.2,1.1,6.4,3.3,7.5,6.6c1.4,4.5,0.8,9.9-2.4,13.5c-2.6,3-6.4,4.6-10.2,5.5 c-5,1.1-10.2,1.1-15.4,0.7c-4.8-0.5-9.8-1.8-13.5-5.1c-3.2-2.8-4.7-7-4.6-11.2c0-0.7,0.7-1.2,1.4-1.1c1.9,0,3.8,0,5.8,0 c0.8-0.1,1.3,0.6,1.4,1.3c0.4,2.3,1.2,4.7,3.2,6.1c3.9,2.5,8.8,2.3,13.3,2.4c3.7-0.2,7.9-0.2,10.9-2.7c1.6-1.4,2.1-3.7,1.6-5.7 c-0.5-1.7-2.2-2.5-3.8-3c-7.8-2.5-16.3-1.6-24-4.4c-3.1-1.1-6.2-3.2-7.4-6.4c-1.7-4.6-0.9-10.2,2.6-13.7 C674.5,184.2,679.5,182.9,684.3,182.4L684.3,182.4z"></path> </g> </g> <path class="st16" d="M642,383.5c4.1-0.4,6.7-1.3,7.8-2.8c1.1-1.4,1.7-4.7,1.7-9.9v-43.2l-1.3-1.6c-1.4-1.7-2.7-2.7-3.7-3.1 c-1-0.4-2.5-0.6-4.5-0.7v-1.8h16.7l37.9,46.9v-32.6c0-5.4-0.8-8.9-2.4-10.5c-1.1-1-3.4-1.7-7-2v-1.8h23v1.8 c-3.7,0.4-6.2,1.3-7.5,2.7s-1.9,4.7-1.9,9.9v51.6h-1.7l-43.4-53.8v38.2c0,5.4,0.8,8.9,2.3,10.5c1,1.1,3.3,1.8,6.9,2.2v1.8h-23 V383.5z"></path> </g> </g> </svg> 